<?xml version="1.0" encoding="utf-8"?>
<!-- Generator: Adobe Illustrator 23.0.1, SVG Export Plug-In . SVG Version: 6.00 Build 0)  -->
<svg version="1.1" id="Layer_1" xmlns="http://www.w3.org/2000/svg" xmlns:xlink="http://www.w3.org/1999/xlink" x="0px" y="0px"
	 viewBox="0 0 512 512" style="enable-background:new 0 0 512 512;" xml:space="preserve">
<style type="text/css">
	.st0{fill:none;stroke:#000000;stroke-width:20;stroke-miterlimit:10;}
</style>
<path d="M388.6,80.7c6.5,0,10,3.5,10,10v330.3c0,6.5-3.5,10-10,10h-46.4c-6.5,0-10-3.5-10-10V224.3h-3.5l-46.9,198.4
	c-1.3,5.6-5.2,8.7-10.9,8.7h-29.5c-6.1,0-9.5-3-10.9-8.7l-46.9-198.4h-3.5v196.6c0,6.5-3.5,10-10,10h-46.9c-6.5,0-10-3.5-10-10V90.6
	c0-6.5,3.5-10,10-10h66c6.1,0,9.5,3,10.9,8.7l55.6,223.1l55.6-223.1c1.3-5.6,5.2-8.7,10.9-8.7C322.2,80.7,388.6,80.7,388.6,80.7z"/>
<rect x="19.8" y="20.5" class="st0" width="472.4" height="471"/>
</svg>
