<?xml version="1.0" encoding="utf-8"?>
<!-- Generator: Adobe Illustrator 23.0.1, SVG Export Plug-In . SVG Version: 6.00 Build 0)  -->
<svg version="1.1" id="Layer_1" xmlns="http://www.w3.org/2000/svg" xmlns:xlink="http://www.w3.org/1999/xlink" x="0px" y="0px"
	 viewBox="0 0 460 228" style="enable-background:new 0 0 460 228;" xml:space="preserve">
<style type="text/css">
	.st0{fill-rule:evenodd;clip-rule:evenodd;fill:none;stroke:#000000;stroke-width:7;stroke-miterlimit:10;}
</style>
<g>
	<path d="M133.3,73.4c1.5,0,2.3,0.8,2.3,2.3v76.1c0,1.5-0.8,2.3-2.3,2.3h-10.7c-1.5,0-2.3-0.8-2.3-2.3v-45.3h-0.8l-10.8,45.7
		c-0.3,1.3-1.2,2-2.5,2h-6.8c-1.4,0-2.2-0.7-2.5-2l-10.8-45.7h-0.8v45.3c0,1.5-0.8,2.3-2.3,2.3H72.2c-1.5,0-2.3-0.8-2.3-2.3V75.7
		c0-1.5,0.8-2.3,2.3-2.3h15.2c1.4,0,2.2,0.7,2.5,2l12.8,51.4l12.8-51.4c0.3-1.3,1.2-2,2.5-2H133.3z"/>
	<path d="M147.1,90c0-10.8,5.8-16.6,16.6-16.6h12.9c10.8,0,16.6,5.8,16.6,16.6v47.5c0,10.8-5.8,16.6-16.6,16.6h-12.9
		c-10.8,0-16.6-5.8-16.6-16.6V90z M174.1,139.2c3,0,4.6-1.5,4.6-4.6V92.9c0-3-1.6-4.6-4.6-4.6h-7.4c-3,0-4.6,1.6-4.6,4.6v41.7
		c0,3.1,1.6,4.6,4.6,4.6H174.1z"/>
	<path d="M253.6,73.4c1.7,0,2.4,0.9,2.1,2.5L237.4,152c-0.3,1.4-1.2,2.1-2.5,2.1h-11.5c-1.4,0-2.2-0.7-2.5-2.1L202.6,76
		c-0.3-1.6,0.3-2.5,2.1-2.5h10.5c1.4,0,2.2,0.7,2.5,2.1l11.4,52.1l11.5-52.1c0.3-1.4,1.2-2.1,2.5-2.1H253.6z"/>
	<path d="M266.9,154.1c-1.3,0-1.8-0.7-1.8-1.8v-77c0-1.2,0.6-1.8,1.8-1.8h12c1.2,0,1.8,0.7,1.8,1.8v77c0,1.2-0.7,1.8-1.8,1.8H266.9z
		"/>
	<path d="M338.2,86.8c0,1.2-0.5,2-1.8,2h-28.5v17.8h21.7c1.2,0,1.8,0.7,1.8,2v11.4c0,1.3-0.7,2-1.8,2h-21.7v17.1h28.5
		c1.4,0,1.8,0.6,1.8,1.8v11.5c0,1.2-0.5,1.8-1.8,1.8H294c-1,0-1.7-0.7-1.7-1.8v-77c0-1.2,0.7-1.8,1.7-1.8h42.4
		c1.4,0,1.8,0.7,1.8,1.8V86.8z"/>
	<path d="M365.5,138.9h22.8c1.3,0,1.8,0.7,1.8,1.8v11.5c0,1.3-0.6,1.8-1.8,1.8h-36.7c-1.2,0-1.8-0.6-1.8-1.8v-77
		c0-1.2,0.7-1.8,1.8-1.8h12c1.3,0,1.8,0.7,1.8,1.8V138.9z"/>
</g>
<rect x="36.5" y="31" class="st0" width="387" height="166"/>
</svg>
