<?xml version="1.0" encoding="utf-8"?>
<svg version="1.1" id="Layer_1" xmlns="http://www.w3.org/2000/svg" xmlns:xlink="http://www.w3.org/1999/xlink" x="0px" y="0px"
	 viewBox="0 0 512 512" style="enable-background:new 0 0 512 512;" xml:space="preserve">
<style type="text/css">
	.st0{fill-rule:evenodd;clip-rule:evenodd;fill:#BADA55;}
	.st1{fill-rule:evenodd;clip-rule:evenodd;fill:#555555;}
</style>
<path class="st0" d="M245.48,81.78c115.39,0,208.93,93.53,208.93,208.93c0,115.4-93.54,208.94-208.93,208.94
	c-115.4,0-208.94-93.54-208.94-208.94C36.54,175.32,130.08,81.78,245.48,81.78L245.48,81.78z"/>
<polygon class="st1" points="278.39,277.62 322.87,305.74 278.39,333.82 "/>
<path class="st1" d="M296.23,244.76h-0.04l-0.74-0.04h-0.04h-0.7h-0.04l0,0l-0.38-0.04h-0.39l0,0h-0.78h-0.77h-0.04h-0.39
	l-0.35,0.04h-0.04h-0.04h-0.69h-0.05l-0.73,0.04H290l-0.74,0.04h-0.04c-14.97,0.97-28.43,7.43-38.41,17.41
	c-10.45,10.45-17.06,24.8-17.49,40.66v0.08v0.08v0.58l-0.04,0.11v0.04v0.08v0.66v0.7v0.08l0.04,0.16V306v0.11v0.66v0.04l0,0
	l0.04,0.08v0.58v0.16l0.03,0.69l0.04,0.04c0.93,14.97,7.39,28.47,17.38,38.45c10.48,10.48,24.87,17.1,40.77,17.49l0,0h0.04h0.62
	l0.12,0.03h0.15h0.62h0.58h0.2l0.11-0.03h0.58h0.08c15.9-0.39,30.25-7.01,40.74-17.49c9.98-9.98,16.44-23.48,17.4-38.45v-0.04
	l0.04-0.69v-0.16l0.04-0.58v-0.08l0,0v-0.04v-0.66V306l0.04-0.58v-0.16v-0.08v-0.7v-0.66v-0.08v-0.04v-0.11v-0.58l-0.04-0.08v-0.08
	c-0.42-15.86-7-30.21-17.48-40.66C325.28,252.07,311.51,245.53,296.23,244.76L296.23,244.76z M247.76,102.9
	c2.59-1.16,5.07-2.09,7.51-2.71c6-1.54,11.49-1.43,16.29,0.74c4.57,2.05,8.36,5.84,11.18,11.69c3.55-6.96,9.12-16.95,16.98-22.64
	c10.53-7.58,24.14-7.77,40.47,14.74c0.92,1.28,2.05,3.13,3.29,5.1c2.74,4.45,6.03,9.79,7.35,10.06c0.62,0.16-0.92-0.81-0.58-2.4
	c3.36-16.63,12.22-19.26,21.39-17.41c5.03,1.05,9.82,3.48,13.65,5.46c0.47,0.27,0.85,0.47,1.97,1c6.38,3.21,7.16,1.28,8.12-1.05
	c2.59-6.38,5.69-14.04,24.06-9.32l-1.93,7.54c-11.76-3.02-13.46,1.2-14.93,4.71c-2.67,6.62-4.87,12.04-18.8,5.11
	c-0.15-0.08-1.12-0.58-2.09-1.09c-3.4-1.74-7.7-3.94-11.57-4.76c-5.1-1-10.13,0.77-12.26,11.29c-1.47,7.16-4.57,9.32-8.55,8.51
	c-4.64-0.93-8.93-7.85-12.46-13.58c-1.08-1.78-2.09-3.41-2.98-4.64c-12.77-17.6-22.48-18.14-29.59-12.96
	c-7.35,5.3-12.77,16.17-15.9,22.44c-1.97,4.02-3.33,6.7-5.84,7.08l-3.44,0.5l-0.89-3.41c-0.63-2.32-1.32-4.41-2.17-6.22l0,0
	c-2.01-4.49-4.61-7.31-7.66-8.7c-3.09-1.4-6.88-1.4-11.14-0.27c-2.01,0.5-4.1,1.27-6.3,2.24L247.76,102.9z M144.28,146.81h0.08
	c-0.03-0.27-0.03-0.54-0.03-0.78c0-8.86,3.59-16.9,9.4-22.7c5.8-5.8,13.85-9.4,22.7-9.4c4.8,0,9.32,1.05,13.43,2.94
	c3.44,1.59,6.54,3.75,9.17,6.38c0.04-2.44,0.31-4.8,0.85-7.12c0.35-1.39,0.77-2.78,1.27-4.14c-2.71-2.63-4.99-5.72-6.65-9.2
	c-2.05-4.22-3.18-8.94-3.18-13.89c0-8.9,3.6-16.9,9.41-22.71c5.8-5.8,13.84-9.4,22.7-9.4c7.35,0,14.12,2.48,19.58,6.66
	c3.36,2.63,6.23,5.88,8.32,9.63l0.23-0.27c1.08-1.35,2.28-2.67,3.6-3.83c-0.66-1.5-1.24-3.09-1.66-4.72
	c-0.69-2.67-1.09-5.45-1.09-8.28c0-8.86,3.59-16.87,9.4-22.67c5.8-5.84,13.85-9.44,22.71-9.44c6.23,0,12.03,1.82,16.98,4.87
	c4.14,2.59,7.66,6.11,10.21,10.25c0.78-0.19,1.51-0.39,2.29-0.5c1.86-0.35,3.75-0.5,5.65-0.5c3.06,0,5.99,0.42,8.82,1.24
	c0.85,0.23,1.7,0.5,2.55,0.81c1.05-6.85,4.3-12.96,8.97-17.64c5.84-5.8,13.85-9.4,22.71-9.4c8.74,0,16.67,3.48,22.47,9.17
	c4.76,4.68,8.09,10.83,9.21,17.72c1.24-0.12,2.48-0.19,3.68-0.19c8.86,0,16.87,3.6,22.67,9.4c5.8,5.8,9.4,13.81,9.4,22.67
	c0,0.62,0,1.2-0.04,1.78c6.42,1.59,12.07,5.1,16.29,9.9l0,0c4.99,5.69,8,13.12,8,21.24c0,1.28-0.08,2.55-0.23,3.83l0,0
	c5.92,1.93,11.06,5.49,14.89,10.17c4.61,5.58,7.36,12.65,7.36,20.39c0,8.86-3.59,16.86-9.4,22.71c-5.84,5.8-13.85,9.4-22.7,9.4
	c-0.39,0-0.78-0.04-1.17-0.04c0.23,1.59,0.35,3.17,0.35,4.76c0,3.09-0.42,6.11-1.28,9.01c-0.66,2.28-1.59,4.45-2.71,6.5
	c0.77,1.97,1.47,3.98,2.13,6.07c6.11,19.89,5.96,43.99-0.27,65.61c-0.04,0.15-0.08,0.27-0.12,0.42l-67.93,205.57l0,0
	c-0.54,1.55-1.97,2.67-3.71,2.67l-49.48-0.11c-0.27,0.08-0.58,0.11-0.89,0.11l0,0h-52.15c-0.31,0-0.62-0.04-0.93-0.11l-49.48,0.11
	c-1.7,0-3.17-1.12-3.68-2.67h-0.04l-67.93-205.57c-0.03-0.16-0.07-0.27-0.11-0.42c-4.87-16.94-6.03-35.44-3.37-52.19
	c-7.73-0.66-14.73-4.1-19.96-9.29c-5.81-5.8-9.4-13.85-9.4-22.71c0-8.86,3.6-16.9,9.4-22.71
	C127.37,150.41,135.42,146.81,144.28,146.81L144.28,146.81z M146.21,154.7c-0.62-0.04-1.24-0.08-1.93-0.08
	c-6.69,0-12.77,2.71-17.18,7.11c-4.41,4.41-7.12,10.49-7.12,17.18c0,6.7,2.71,12.77,7.12,17.18c4.14,4.14,9.75,6.77,15.98,7.08
	c0.46-1.93,1-3.83,1.55-5.69c4.52-14.7,12.5-27.11,23.99-34.78l0,0l0.39-0.23l0.38-0.27l0.39-0.23l0.39-0.24l0.35-0.19l0.04-0.04
	l0.43-0.23l0.16-0.12l0.46-0.27l0.16-0.08l0.42-0.23l0.08-0.04l0.27-0.15h0.05l0.42-0.24l0.04-0.04l0.27-0.11l0.59-0.31l0.07-0.04
	l0.7-0.31v-0.04h0.04l0.62-0.27l0.12-0.08h0.04c0.23-0.11,0.42-0.19,0.61-0.27l0.16-0.08l0.62-0.27l0.16-0.04
	c0.5-0.19,1-0.39,1.5-0.58l0.16-0.08l0.19-0.04l0.08-0.04l0.08-0.04l0.31-0.12h0.04l0,0l0.15-0.04l0.2-0.08l0.08-0.04l0.27-0.08
	l0.15-0.04l0,0l0.16-0.08l0.19-0.04l0.08-0.04h0.08l0.15-0.08l0.2-0.04l0,0l0.16-0.04l0.15-0.08h0.12l0.08-0.04l0.15-0.04l0.15-0.03
	h0.05l0.15-0.08c3.72-1,7.35-1.51,10.91-1.51h0.04h0.03h0.39h0.27h0.15c8.47,0.16,16.32,3.09,23.33,8.24l0.31,0.23l0.04,0.04
	l0.31,0.23l0.12,0.08l0.23,0.15l0.19,0.19l0.12,0.08l0.31,0.27h0.04c0.43,0.35,0.85,0.7,1.24,1.05l0.04,0.04
	c1.09,0.89,2.12,1.9,3.18,2.9v0.04c0.92,0.89,1.81,1.85,2.7,2.86l3.48,1.63c-0.11,0.58-0.24,1.2-0.34,1.82l-0.08,0.34
	c0.5,0.62,1,1.32,1.47,1.97l0.04,0.08l0.19,0.27l0.12,0.19h0.04l0.07,0.16l0.12,0.19l0.11,0.16l0,0l0.11,0.15l0.12,0.19
	c3.79,5.61,7.01,12.07,9.59,19.11c1.94-12.42,5.77-24.02,11.26-33.65c0.31-0.62,0.66-1.2,1.04-1.78v-0.04l0.31-0.5l0.08-0.11
	l0.27-0.42l0.04-0.08l0.31-0.5l0.04-0.04l0.35-0.54l0.04-0.08l0.12-0.15l0.31-0.47l0.08-0.12l0.31-0.46l0.19-0.23l0.04-0.12
	l0.31-0.39l0.04-0.04l0.27-0.39l0.16-0.23l0,0l0.39-0.5l0,0l0.31-0.46l0.07-0.04v-0.04l0.35-0.47l0.08-0.12
	c2.13-2.7,4.41-5.14,6.85-7.35h0.04l0.46-0.42l0.08-0.08l0.16-0.12l0.35-0.31l0.19-0.16l0.35-0.31l0.19-0.12l0.35-0.31l0.2-0.16
	c6.92-5.45,15.04-8.74,24.25-9.12h0.04h0.08h0.04l0.07-0.04h0.04h0.08h0.04h0.08h0.15l0,0h0.04h0.08h0.04h0.12h0.07h0.12h0.04h0.04
	h0.04h0.03h0.08h0.54h0.54h0.08h0.08c15.44,0.23,28.04,8.32,37.06,21.16c2.76,3.91,5.18,8.24,7.24,12.96l0.23,0.47v0.04l0.19,0.46
	l0.08,0.11l0.04,0.16l0.2,0.42v0.04c3.05,7.31,5.26,15.43,6.57,23.99c1.86-5.03,4.07-9.71,6.58-14.05l0,0
	c0.23-0.39,0.42-0.74,0.66-1.12l0.27-0.42l0.04-0.11l0.27-0.39l0.08-0.15l0.23-0.35l0.12-0.19l0.19-0.31l0.04-0.08
	c0.2-0.31,0.39-0.62,0.58-0.89l0,0c3.95-5.96,8.47-10.99,13.47-14.9c9.94-7.73,21.7-10.98,34.54-7.97l0.16,0.04l0.27,0.08
	c0.54,0.12,1.04,0.27,1.59,0.42h0.04l0.07,0.04h0.08l0.23,0.08l0.08,0.04l0,0h0.08l0.08,0.04h0.04l0.11,0.04h0.04l0.04,0.04h0.08
	l0.04,0.04h0.04h0.07l0.04,0.04h0.04l0.04,0.04h0.08h0.04l0.04,0.04h0.07l0.04,0.04h0.04l0.08,0.04h0.08l0,0l0.08,0.04l0.07,0.04
	l0,0h0.08l0.08,0.04h0.04l0.04,0.04h0.08l0.03,0.04h0.04l0.08,0.04h0.04h0.04l0.07,0.04l0.08,0.03l0,0h0.08l0.04,0.04h0.04
	l0.04,0.04h0.08l0.03,0.04h0.04l0.08,0.04h0.08l0,0l0.08,0.04l0.07,0.04c0.27,0.08,0.5,0.19,0.78,0.27l0.04,0.04l0.69,0.27
	l0.08,0.04h0.04l0.66,0.27l0.08,0.04l0.08,0.03l0.54,0.24l0.23,0.08c0.2,0.12,0.42,0.2,0.62,0.31h0.04l0,0l0.04,0.04l0.63,0.27
	l0.19,0.12l0.08,0.04l0.31,0.16l0.08,0.04l0.42,0.24l0.24,0.11l0.46,0.27l0,0l0.31,0.15l0.32,0.16l0.31,0.16l0.04,0.04l0.54,0.31
	l0,0l0.58,0.34l0.31,0.2c0.39,0.23,0.74,0.5,1.12,0.74l0.31,0.19c7,4.71,12.73,11.25,17.1,18.99c0.47-1.9,0.74-3.87,0.74-5.95
	c0-1.43-0.12-2.79-0.35-4.1c-0.23-1.35-0.58-2.67-1.05-3.94l-2.32-6.65l6.85,1.55c0.89,0.19,1.78,0.34,2.71,0.46
	c0.85,0.12,1.78,0.16,2.75,0.16c6.69,0,12.76-2.71,17.17-7.12c4.41-4.41,7.12-10.48,7.12-17.17c0-5.88-2.09-11.26-5.53-15.44
	c-3.52-4.29-8.48-7.31-14.09-8.44l-4.02-0.77l0.97-3.94c0.19-0.89,0.39-1.86,0.5-2.91c0.12-0.92,0.16-1.89,0.16-2.9
	c0-6.19-2.28-11.79-6.03-16.09l0,0c-3.83-4.34-9.17-7.27-15.21-8.01l-4.06-0.5l0.7-4.06c0.11-0.66,0.23-1.39,0.27-2.09
	c0.07-0.7,0.12-1.43,0.12-2.17c0-6.69-2.76-12.77-7.12-17.18c-4.41-4.37-10.48-7.11-17.17-7.11c-1.17,0-2.2,0.08-3.14,0.19
	c-1,0.15-2.05,0.34-3.05,0.62l-4.76,1.24l-0.12-4.95c-0.12-6.58-2.9-12.54-7.27-16.87c-4.37-4.25-10.4-6.92-17.02-6.92
	c-6.69,0-12.77,2.75-17.18,7.11c-4.37,4.41-7.11,10.49-7.11,17.18l0,0v0.42l0,0v0.54l0.23,7.24l-6.15-3.84
	c-1.9-1.16-3.94-2.09-6.15-2.7c-2.12-0.62-4.33-0.93-6.69-0.93c-1.47,0-2.9,0.12-4.29,0.39c-1.43,0.23-2.83,0.62-4.14,1.12
	l-3.29,1.2l-1.54-3.17c-2.01-4.1-5.15-7.58-9.02-9.98c-3.72-2.33-8.12-3.68-12.84-3.68c-6.73,0-12.81,2.75-17.18,7.12
	c-4.41,4.41-7.12,10.48-7.12,17.17c0,2.21,0.27,4.29,0.82,6.27c0.54,2.09,1.35,4.06,2.4,5.84l1.7,3.01l-2.78,2.05
	c-1.78,1.28-3.36,2.83-4.72,4.52c-1.35,1.67-2.48,3.52-3.36,5.57l-7.35-0.54c-1.36-5.26-4.49-9.86-8.67-13.07
	c-4.1-3.17-9.24-5.03-14.81-5.03c-6.73,0-12.8,2.71-17.17,7.08c-4.42,4.41-7.12,10.48-7.12,17.21c0,3.79,0.85,7.35,2.36,10.52
	c1.63,3.29,3.94,6.19,6.77,8.47l2.48,1.97l-1.39,2.78c-0.82,1.67-1.47,3.41-1.9,5.27c-0.39,1.78-0.62,3.63-0.62,5.57
	c0,0.62,0,1.16,0.04,1.67c0.04,0.58,0.11,1.12,0.15,1.62l0.62,4.49l-4.49-0.08H203v0.04c-0.89,0-1.62,0-2.21,0.08h-0.04
	c-0.74,0.04-1.43,0.15-2.17,0.27l-2.2,0.42l-1.43-1.7c-2.28-2.67-5.11-4.84-8.36-6.35c-3.09-1.43-6.53-2.21-10.18-2.21
	c-6.73,0-12.8,2.71-17.17,7.12c-4.41,4.37-7.12,10.45-7.12,17.17c0,0.85,0.04,1.59,0.08,2.17c0.08,0.74,0.15,1.47,0.31,2.17
	l0.96,5.37l-5.41-0.84C147.57,154.82,146.91,154.74,146.21,154.7L146.21,154.7z"/>
</svg>
